<?xml version="1.0" encoding="utf-8"?>
<!DOCTYPE svg PUBLIC "-//W3C//DTD SVG 1.1//EN" "http://www.w3.org/Graphics/SVG/1.1/DTD/svg11.dtd">
<svg version="1.1" xmlns="http://www.w3.org/2000/svg" xmlns:xlink="http://www.w3.org/1999/xlink" x="0px" y="0px" width="84px"
	 height="63px" viewBox="0 0 84 63" enable-background="new 0 0 84 63" xml:space="preserve">
<g id="Toolbar">
	<g id="Ruler">
		<rect y="42" fill="none" width="21" height="21"/>
		<path opacity="0.5" fill="none" stroke="#000000" stroke-miterlimit="10" d="M4.5,50"/>
		<line fill="none" stroke="#000000" stroke-miterlimit="10" x1="3.5" y1="49" x2="3.5" y2="52"/>
		<line fill="none" stroke="#000000" stroke-miterlimit="10" x1="5.5" y1="49" x2="5.5" y2="53"/>
		<line fill="none" stroke="#000000" stroke-miterlimit="10" x1="7.5" y1="49" x2="7.5" y2="52"/>
		<line fill="none" stroke="#000000" stroke-miterlimit="10" x1="9.5" y1="49" x2="9.5" y2="53"/>
		<line fill="none" stroke="#000000" stroke-miterlimit="10" x1="11.5" y1="49" x2="11.5" y2="52"/>
		<line fill="none" stroke="#000000" stroke-miterlimit="10" x1="13.5" y1="49" x2="13.5" y2="53"/>
		<line fill="none" stroke="#000000" stroke-miterlimit="10" x1="15.5" y1="49" x2="15.5" y2="52"/>
		<path d="M1,48v7v2h19v-2v-7H1z M2,55v-5h17v5H2z"/>
		<line fill="none" stroke="#000000" stroke-miterlimit="10" x1="17.5" y1="49" x2="17.5" y2="53"/>
	</g>
	<g id="Zoom_out">
		<rect x="68" y="30" width="11" height="3"/>
		<rect x="63" y="21" fill="none" width="21" height="21"/>
	</g>
	<g id="Zoom_in">
		<polygon points="58,30 54,30 54,26 51,26 51,30 47,30 47,33 51,33 51,37 54,37 54,33 58,33 		"/>
		<rect x="42" y="21" fill="none" width="21" height="21"/>
	</g>
	<g id="Poly_tool_three">
		<rect x="21" y="21" fill="none" width="21" height="21"/>
		<polyline fill="none" stroke="#000000" stroke-width="1.4" stroke-miterlimit="10" points="34,26 27,33 36,37 37.3281,30.0801 		
			"/>
		<circle fill="#FFFFFF" stroke="#000000" stroke-width="0.8" stroke-miterlimit="10" cx="34" cy="26" r="2"/>
		<circle fill="#FFFFFF" stroke="#000000" stroke-width="0.8" stroke-miterlimit="10" cx="27" cy="33" r="2"/>
		<circle fill="#FFFFFF" stroke="#000000" stroke-width="0.8" stroke-miterlimit="10" cx="36" cy="37" r="2"/>
	</g>
	<g id="Poly_tool_four">
		<polyline fill="none" stroke="#000000" stroke-width="1.4" stroke-miterlimit="10" points="13,27 5,26 8,37 16,35 18,28.5552 		
			"/>
		<circle fill="#FFFFFF" stroke="#000000" stroke-width="0.8" stroke-miterlimit="10" cx="5" cy="26" r="2"/>
		<circle fill="#FFFFFF" stroke="#000000" stroke-width="0.8" stroke-miterlimit="10" cx="13" cy="27" r="2"/>
		<circle fill="#FFFFFF" stroke="#000000" stroke-width="0.8" stroke-miterlimit="10" cx="8" cy="37" r="2"/>
		<circle fill="#FFFFFF" stroke="#000000" stroke-width="0.8" stroke-miterlimit="10" cx="16" cy="35" r="2"/>
		<rect y="21" fill="none" width="21" height="21"/>
	</g>
	<g id="Pan_tool">
		<rect x="63" fill="none" width="21" height="21"/>
		<path d="M71.6094,18H72.5c-0.9375-3.8281-4.127-2.5405-5.5781-5.9688c0,0,0.833-1.0522,1.7812,0.0625
			c0.7168,0.8428,2.1445,1.1797,2.8438,1.0938c-0.5869-1.3916-1.9219-5.75-2.0156-6.9688c-0.041-0.5308-0.0781-1.0625,0.5781-1.2344
			c0.6377-0.167,1.0449,0.3999,1.2969,1.2344c0.4062,1.3438,1,4.5625,1.5225,4.6997c0.0107,0.0029,0.0205-0.001,0.0303-0.0039
			c0.624-0.165-0.1465-3.3364-0.084-5.6802c0.0234-0.8691,0.2041-1.6104,1-1.5938c0.75,0.0156,0.9219,0.915,0.9219,1.8594
			c0,0.9067-0.2881,5.5,0.0869,5.5c0.0068,0,0.0127,0,0.0186,0c0.71,0,0.7578-3.7539,0.9727-4.875
			c0.1514-0.793,0.4414-1.478,1.1719-1.4219c0.6982,0.0537,0.9541,0.5132,0.8281,1.5781c-0.1123,0.9463-1.4219,4.875-0.9707,5.0229
			c0.4141,0.1357,0.9873-1.9463,1.4863-3.1167c0.4062-0.9531,0.9912-0.9302,1.2969-0.8281c0.668,0.2227,0.7773,0.7773,0.4688,1.5312
			c-1.5625,3.8125-3.0186,6.1172-3.2559,9.1094h0.9082c0.082-2.25,1.0352-4.2031,3.124-8.9604
			c0.2773-0.6309,0.125-1.4736-0.3232-1.9458c-0.2969-0.3125-1.4375-0.9062-2.1875-0.1094
			c0.2344-0.5312,0.6943-3.0981-1.5469-3.0156c-0.4014,0.0146-1.2188,0.2812-1.4531,1.3438C75.5,3.6719,74.7051,3.0054,73.96,3.0054
			c-0.8906,0-2.1318,0.479-1.6787,3.5415c-0.3438-1.2812-1.0312-2.625-2.4062-2.3438c-1.1328,0.2314-1.1875,1.4219-1.1406,1.9375
			c0.0664,0.728,1.1719,5.0781,1.5781,5.9844c-0.7344,0.0625-1.1719-1.2139-2.4844-1.3438C66.8066,10.6802,66,11.8384,66,11.8384
			s0.9219,2.4897,2.916,3.4092C70.1621,15.8223,71.3691,17,71.6094,18z"/>
	</g>
	<g id="Pin_tool">
		<rect x="42" fill="none" width="21" height="21"/>
		<path id="pin-fill_2_" d="M52.3213,18c-0.0742-0.8853-0.25-1.6958-0.4561-2.4609c-0.2061-0.7666-0.4336-1.5-0.7188-2.1904
			c-0.2842-0.6831-0.6426-1.2949-1.0312-1.8726c-0.3945-0.5854-0.7998-1.1484-1.1465-1.7627
			c-0.3496-0.6201-0.668-1.2954-0.7129-2.1973c-0.0488-0.9609,0.1904-1.7275,0.5508-2.3506c0.7031-1.21,1.8115-2.0879,3.6162-2.1655
			h0.0908c1.8047,0.0776,2.9141,0.9556,3.6152,2.1655c0.3613,0.623,0.5996,1.3896,0.5518,2.3506
			c-0.0449,0.9019-0.3643,1.5771-0.7129,2.1973c-0.3467,0.6143-0.751,1.1768-1.1455,1.7627
			c-0.3906,0.5776-0.749,1.1895-1.0322,1.8726c-0.2852,0.6904-0.5127,1.4238-0.7197,2.1904
			c-0.2051,0.7651-0.3809,1.5757-0.4551,2.4609H52.3213z"/>
	</g>
	<g id="Redo_arrow">
		<rect x="21" fill="none" width="21" height="21"/>
		<path d="M33,12.5527c-4.6074-0.0684-6.8369,1.2031-8,4.4473c0-4.1875,3.168-8.043,8-8.6411V5l6,5.5L33,16V12.5527z"/>
	</g>
	<g id="Undo_arrow">
		<path d="M9,8.3999V5l-5,5.5L9,16v-3.4004c4.6074,0,6.8369,1.1562,8,4.4004C17,12.8125,13.832,8.998,9,8.3999z"/>
		<rect fill="none" width="21" height="21"/>
	</g>
</g>
</svg>
